<?xml version="1.0" encoding="UTF-8" standalone="no"?>
<!-- Created with Inkscape (http://www.inkscape.org/) -->

<svg
   width="512"
   height="512"
   viewBox="0 0 512 512"
   version="1.1"
   id="svg1"
   xml:space="preserve"
   inkscape:version="1.3.2 (091e20e, 2023-11-25, custom)"
   sodipodi:docname="quickNote_box_v2.svg"
   xmlns:inkscape="http://www.inkscape.org/namespaces/inkscape"
   xmlns:sodipodi="http://sodipodi.sourceforge.net/DTD/sodipodi-0.dtd"
   xmlns:xlink="http://www.w3.org/1999/xlink"
   xmlns="http://www.w3.org/2000/svg"
   xmlns:svg="http://www.w3.org/2000/svg"><sodipodi:namedview
     id="namedview1"
     pagecolor="#505050"
     bordercolor="#ffffff"
     borderopacity="1"
     inkscape:showpageshadow="0"
     inkscape:pageopacity="0"
     inkscape:pagecheckerboard="1"
     inkscape:deskcolor="#505050"
     inkscape:document-units="px"
     inkscape:zoom="1"
     inkscape:cx="244.5"
     inkscape:cy="345.5"
     inkscape:window-width="1920"
     inkscape:window-height="1121"
     inkscape:window-x="2391"
     inkscape:window-y="-9"
     inkscape:window-maximized="1"
     inkscape:current-layer="layer2" /><defs
     id="defs1"><linearGradient
       id="linearGradient3"
       inkscape:collect="always"><stop
         style="stop-color:#e3ffff;stop-opacity:0.12076584;"
         offset="0"
         id="stop3" /><stop
         style="stop-color:#b4e8fd;stop-opacity:0;"
         offset="1"
         id="stop4" /></linearGradient><linearGradient
       id="linearGradient8"
       inkscape:collect="always"><stop
         style="stop-color:#236b7d;stop-opacity:1;"
         offset="0"
         id="stop8" /><stop
         style="stop-color:#203e4f;stop-opacity:0;"
         offset="1"
         id="stop9" /></linearGradient><linearGradient
       id="linearGradient6"
       inkscape:collect="always"><stop
         style="stop-color:#b5d1df;stop-opacity:1;"
         offset="0"
         id="stop6" /><stop
         style="stop-color:#d5e7f0;stop-opacity:0;"
         offset="1"
         id="stop7" /></linearGradient><linearGradient
       inkscape:collect="always"
       xlink:href="#linearGradient6"
       id="linearGradient7"
       x1="60"
       y1="435"
       x2="498"
       y2="12"
       gradientUnits="userSpaceOnUse" /><linearGradient
       inkscape:collect="always"
       xlink:href="#linearGradient8"
       id="linearGradient9"
       x1="499.21738"
       y1="14.142136"
       x2="56.568542"
       y2="441.23462"
       gradientUnits="userSpaceOnUse" /><linearGradient
       inkscape:collect="always"
       xlink:href="#linearGradient3"
       id="linearGradient4"
       x1="71.623573"
       y1="577.04706"
       x2="528.05194"
       y2="-52.153603"
       gradientUnits="userSpaceOnUse" /></defs><g
     inkscape:groupmode="layer"
     id="layer2"
     inkscape:label="box"><rect
       style="fill:#ffffff;stroke-width:37.5231;stroke-linejoin:round;paint-order:stroke fill markers;fill-opacity:0.15496689"
       id="rect2"
       width="657.56628"
       height="657.56628"
       x="-72.783142"
       y="-72.783142"
       ry="145.69606"
       transform="matrix(0.77558723,0,0,0.77558723,57.44967,57.449668)" /><rect
       style="fill:url(#linearGradient4);stroke-width:37.5231;stroke-linejoin:round;paint-order:stroke fill markers;fill-opacity:1"
       id="rect3"
       width="657.56628"
       height="657.56628"
       x="-72.783142"
       y="-72.783142"
       ry="145.69606"
       transform="matrix(0.77558723,0,0,0.77558723,57.44967,57.449668)" /></g><g
     inkscape:groupmode="layer"
     id="layer1"
     inkscape:label="logo"
     transform="matrix(0.77558723,0,0,0.77558723,57.44967,57.449668)"><path
       id="rect1"
       style="display:inline;fill:#ffffff;fill-opacity:1;stroke-width:16.2801;stroke-linejoin:round;paint-order:stroke fill markers"
       d="M 310.24805,4.7910156 V 54.447266 H 52.326172 V 449.7207 H 446.89062 V 221.89453 h 60.39454 v -59 H 446.89062 V 54.447266 H 337.23438 V 4.7910156 Z" /><path
       id="path5"
       style="display:inline;fill:url(#linearGradient7);fill-opacity:1;stroke-width:16.2801;stroke-linejoin:round;paint-order:stroke fill markers"
       d="M 310.24805,4.7910156 V 54.447266 H 52.326172 V 449.7207 H 446.89062 V 221.89453 h 60.39454 v -59 H 446.89062 V 54.447266 H 337.23438 V 4.7910156 Z" /><path
       id="path4"
       style="display:inline;fill:#c0d6e5;fill-opacity:1;stroke-width:16.2801;stroke-linejoin:round;paint-order:stroke fill markers"
       d="m 316.51562,12.501953 -4.94921,0.01563 v 29.199219 36.994141 h -88.70899 c -112.37865,0 -115.68241,0.690881 -128.470701,26.798837 -5.122848,10.45855 -5.025391,8.11851 -5.025391,120.66601 v 104.86914 l 4.949219,-4.45898 v -92.63086 c 0,-112.54761 -0.09746,-110.20941 5.025391,-120.66797 C 112.12423,87.179144 115.42788,86.490234 227.80664,86.490234 h 88.70898 v -36.99414 z m 88.42774,65.451172 c -10.7589,0.137561 -21.37371,6.332903 -24.42969,19.677734 -1.99439,8.709141 0.58475,16.565851 5.875,22.082031 -1.64821,-4.26735 -2.11112,-9.12855 -0.92578,-14.30469 5.17107,-22.581053 31.94435,-24.646521 44.48242,-11.578122 C 426.05113,83.45661 415.43594,77.818969 404.94336,77.953125 Z M 289.51172,141.07422 c 0.71132,5.06463 -1.83381,10.59812 -7.82617,13.04492 -4.37526,1.78651 -42.09146,1.78039 -46.23633,-0.008 -0.71502,-0.30844 -1.30165,-0.7521 -1.91211,-1.16992 0.66388,3.77347 2.94287,7.25697 6.86133,8.94726 4.14488,1.78801 41.86302,1.79432 46.23828,0.008 9.60237,-3.92084 10.57003,-15.73298 2.875,-20.82226 z m -101.99414,7.62305 c 1.294,3.14465 2.05273,6.62204 2.05273,10.40625 0,18.64676 -19.63818,32.30151 -37.48828,26.0664 -5.00622,-1.74868 -9.1072,-4.51639 -12.22265,-7.91406 2.88957,6.89195 8.72959,12.74445 17.17187,15.69336 17.85012,6.2351 37.48828,-7.42158 37.48828,-26.06836 0,-7.29747 -2.742,-13.48817 -7.00195,-18.18359 z m 319.76758,30.43164 -59.71485,0.61328 c -62.73661,0.64455 -95.57218,0.72411 -105.96679,0.30078 0.0465,1.57133 0.0772,7.42598 0.12695,7.47461 0.79881,0.78122 34.9689,0.78287 110.78906,0.004 l 54.76563,-0.5625 z m -216.29883,27.97461 c 0,-0.34899 -3.64189,1.29034 -9.33985,4.08984 -7.36007,17.16347 -22.19003,47.75219 -29.28906,59.47656 -23.2311,38.36729 -40.7092,58.50534 -104.25781,120.13672 l -41.20703,39.96484 12.9707,-0.002 33.1875,-32.18555 c 63.54867,-61.63143 81.02472,-81.76938 104.25586,-120.13671 9.63079,-15.90571 33.67969,-66.84813 33.67969,-71.34375 z m 89.09375,39.98632 c 5.14174,11.42032 -1.38604,26.19787 -13.32422,29.24805 -2.52128,0.6442 -53.16565,1.50251 -73.10742,1.42969 -2.3534,3.84034 -4.5545,7.47892 -4.55469,7.59961 -10e-4,0.74864 79.4965,-0.45611 82.61133,-1.25196 12.29413,-3.14111 18.95943,-18.746 12.93554,-30.28515 -1.47001,-2.81591 -2.85716,-5.00063 -4.56054,-6.74024 z m 1.15625,94.34571 c 3.35136,9.66748 -1.07515,21.30958 -13.30078,27.70117 -3.39038,1.77249 -117.62788,3.29669 -153.01367,2.49219 -3.38773,3.56844 -6.15738,6.7424 -6.17188,7.11914 -0.0791,2.05186 160.12797,0.26179 164.13672,-1.83399 15.80154,-8.26107 18.60177,-25.28634 8.34961,-35.47851 z m -272.73828,4.08593 -20.839847,20.46485 c -22.429083,22.02659 -24.773437,25.15841 -24.773437,33.09179 0,5.74957 2.329816,10.77892 6.099609,14.32813 -0.698286,-2.04703 -1.150391,-4.22401 -1.150391,-6.55078 0,-7.93339 2.344331,-11.06519 24.773438,-33.0918 l 20.839848,-20.46484 13.5957,13.28711 7.10937,6.94726 1.53711,-1.4375 -13.5957,-13.28711 z" /><path
       style="display:inline;fill:#19303e;fill-opacity:1;stroke-width:0.934736"
       d="M 122.9276,506.56182 C 63.224504,501.14179 15.424618,458.56257 6.099226,402.49333 3.3971261,386.24686 3.7233835,115.95579 6.4582607,105.04703 19.291515,53.858309 55.391797,19.096082 107.83021,7.4324158 c 9.41234,-2.0935504 9.54484,-2.096538 106.57977,-2.402833 L 311.56569,4.7229072 V 41.717384 78.711857 h -88.70845 c -112.37887,0 -115.68304,0.689198 -128.471357,26.797193 -5.122858,10.45857 -5.025459,8.11994 -5.025459,120.66766 v 104.868 l 15.838036,-14.26729 c 34.42791,-31.01352 66.56241,-54.80429 105.66569,-78.22956 17.96217,-10.76045 75.17157,-40.61067 75.17157,-39.22237 0,4.49563 -24.04822,55.43806 -33.67902,71.34378 -23.23116,38.36737 -40.70753,58.50589 -104.25626,120.13739 l -41.20798,39.96477 136.61296,-0.0144 c 109.8538,-0.0116 137.65229,-0.25351 141.91906,-1.23503 12.00183,-2.76085 26.63657,-14.04069 32.74306,-25.23696 6.48662,-11.89325 6.22866,-7.69307 6.6166,-107.73049 l 0.35027,-90.325 41.3169,-1.3e-4 41.31689,-1.3e-4 -0.2235,93.55926 c -0.24746,103.58189 -0.21448,102.95237 -6.36774,121.50944 -14.25922,43.00303 -51.53489,74.22226 -100.31237,84.01393 -8.13738,1.6335 -261.17689,2.77149 -277.93699,1.24995 z M 104.86216,401.39735 c 9.93599,-9.54886 20.93675,-20.04827 24.44613,-23.33204 l 6.38069,-5.97048 -13.59558,-13.28709 -13.59557,-13.28708 -20.83948,20.46552 c -22.429129,22.02663 -24.773447,25.15808 -24.773447,33.09148 0,11.10496 8.579673,19.64792 19.756736,19.67221 4.124842,0.009 4.2866,-0.11737 22.220521,-17.35252 z m 98.93821,-30.42775 c 0.0153,-0.39757 3.014,-3.84149 6.66369,-7.65316 13.78301,-14.39469 24.19686,-25.70115 28.76672,-31.23238 l 4.72777,-5.72235 56.73326,-0.13778 c 65.34817,-0.15869 62.05709,-0.26136 67.60714,2.10893 18.9053,8.07396 18.70299,30.83545 -0.36265,40.803 -4.00875,2.09578 -164.21505,3.88561 -164.13593,1.83374 z m 80.34385,-93.38037 c 2.2e-4,-0.13938 2.3667,-4.08966 5.25886,-8.77839 2.89217,-4.68872 8.31729,-14.63642 12.05582,-22.10598 l 6.79734,-13.58101 27.01625,-0.0486 c 33.8615,-0.0608 38.28838,1.2323 44.41902,12.97593 6.02389,11.53916 -0.64156,27.14474 -12.9357,30.28586 -3.11483,0.79585 -82.61272,2.00081 -82.61159,1.25217 z M 152.08136,185.17081 c -20.18522,-7.05075 -25.73357,-30.61659 -10.74052,-45.61885 17.49884,-17.50958 48.22986,-5.05181 48.22986,19.55146 0,18.6468 -19.6392,32.3025 -37.48934,26.06739 z m 184.69911,-5.43049 c -0.34671,-0.33881 -0.63037,-39.84156 -0.63037,-87.783879 V 4.7885934 l 25.29358,0.00547 c 52.25279,0.011258 81.34616,9.9443596 109.57275,37.4105156 27.80542,27.056344 36.279,51.772757 36.279,105.821601 v 31.10296 l -59.72584,0.61361 c -75.82024,0.77897 -109.99031,0.77822 -110.78912,-0.003 z m 78.09419,-53.20416 c 8.43882,-2.36312 15.74799,-11.82271 16.5346,-21.39922 2.55907,-31.155364 -43.91005,-38.009329 -50.89514,-7.506795 -4.4449,19.410005 13.71522,34.687325 34.36054,28.906015 z m -179.42609,27.57511 c -8.53243,-3.6806 -9.67928,-15.78474 -2.00262,-21.13598 4.08919,-2.8505 41.60182,-3.69303 48.57386,-1.09097 10.46189,3.90454 10.25187,17.91275 -0.33336,22.23491 -4.37526,1.78651 -42.09299,1.78001 -46.23788,-0.008 z"
       id="path1" /><path
       style="display:inline;fill:url(#linearGradient9);fill-opacity:1;stroke-width:0.934736"
       d="M 122.9276,506.56182 C 63.224504,501.14179 15.424618,458.56257 6.099226,402.49333 3.3971261,386.24686 3.7233835,115.95579 6.4582607,105.04703 19.291515,53.858309 55.391797,19.096082 107.83021,7.4324158 c 9.41234,-2.0935504 9.54484,-2.096538 106.57977,-2.402833 L 311.56569,4.7229072 V 41.717384 78.711857 h -88.70845 c -112.37887,0 -115.68304,0.689198 -128.471357,26.797193 -5.122858,10.45857 -5.025459,8.11994 -5.025459,120.66766 v 104.868 l 15.838036,-14.26729 c 34.42791,-31.01352 66.56241,-54.80429 105.66569,-78.22956 17.96217,-10.76045 75.17157,-40.61067 75.17157,-39.22237 0,4.49563 -24.04822,55.43806 -33.67902,71.34378 -23.23116,38.36737 -40.70753,58.50589 -104.25626,120.13739 l -41.20798,39.96477 136.61296,-0.0144 c 109.8538,-0.0116 137.65229,-0.25351 141.91906,-1.23503 12.00183,-2.76085 26.63657,-14.04069 32.74306,-25.23696 6.48662,-11.89325 6.22866,-7.69307 6.6166,-107.73049 l 0.35027,-90.325 41.3169,-1.3e-4 41.31689,-1.3e-4 -0.2235,93.55926 c -0.24746,103.58189 -0.21448,102.95237 -6.36774,121.50944 -14.25922,43.00303 -51.53489,74.22226 -100.31237,84.01393 -8.13738,1.6335 -261.17689,2.77149 -277.93699,1.24995 z M 104.86216,401.39735 c 9.93599,-9.54886 20.93675,-20.04827 24.44613,-23.33204 l 6.38069,-5.97048 -13.59558,-13.28709 -13.59557,-13.28708 -20.83948,20.46552 c -22.429129,22.02663 -24.773447,25.15808 -24.773447,33.09148 0,11.10496 8.579673,19.64792 19.756736,19.67221 4.124842,0.009 4.2866,-0.11737 22.220521,-17.35252 z m 98.93821,-30.42775 c 0.0153,-0.39757 3.014,-3.84149 6.66369,-7.65316 13.78301,-14.39469 24.19686,-25.70115 28.76672,-31.23238 l 4.72777,-5.72235 56.73326,-0.13778 c 65.34817,-0.15869 62.05709,-0.26136 67.60714,2.10893 18.9053,8.07396 18.70299,30.83545 -0.36265,40.803 -4.00875,2.09578 -164.21505,3.88561 -164.13593,1.83374 z m 80.34385,-93.38037 c 2.2e-4,-0.13938 2.3667,-4.08966 5.25886,-8.77839 2.89217,-4.68872 8.31729,-14.63642 12.05582,-22.10598 l 6.79734,-13.58101 27.01625,-0.0486 c 33.8615,-0.0608 38.28838,1.2323 44.41902,12.97593 6.02389,11.53916 -0.64156,27.14474 -12.9357,30.28586 -3.11483,0.79585 -82.61272,2.00081 -82.61159,1.25217 z M 152.08136,185.17081 c -20.18522,-7.05075 -25.73357,-30.61659 -10.74052,-45.61885 17.49884,-17.50958 48.22986,-5.05181 48.22986,19.55146 0,18.6468 -19.6392,32.3025 -37.48934,26.06739 z m 184.69911,-5.43049 c -0.34671,-0.33881 -0.63037,-39.84156 -0.63037,-87.783879 V 4.7885934 l 25.29358,0.00547 c 52.25279,0.011258 81.34616,9.9443596 109.57275,37.4105156 27.80542,27.056344 36.279,51.772757 36.279,105.821601 v 31.10296 l -59.72584,0.61361 c -75.82024,0.77897 -109.99031,0.77822 -110.78912,-0.003 z m 78.09419,-53.20416 c 8.43882,-2.36312 15.74799,-11.82271 16.5346,-21.39922 2.55907,-31.155364 -43.91005,-38.009329 -50.89514,-7.506795 -4.4449,19.410005 13.71522,34.687325 34.36054,28.906015 z m -179.42609,27.57511 c -8.53243,-3.6806 -9.67928,-15.78474 -2.00262,-21.13598 4.08919,-2.8505 41.60182,-3.69303 48.57386,-1.09097 10.46189,3.90454 10.25187,17.91275 -0.33336,22.23491 -4.37526,1.78651 -42.09299,1.78001 -46.23788,-0.008 z"
       id="path7"
       inkscape:label="path7" /></g></svg>
